<svg xmlns="http://www.w3.org/2000/svg" width="609" height="224" viewBox="0 0 609 224" fill="none">
<path d="M191.94 33.662C182.533 24.0654 171.408 16.186 159.092 10.4511C158.59 10.1964 158.081 9.95811 157.555 9.73627C155.131 8.65173 152.683 7.62469 150.177 6.71269C143.16 4.16565 135.823 2.30055 128.239 1.19136C122.932 0.419029 117.517 0 112.004 0C50.2425 0 0 50.2424 0 111.996C0 160.11 30.4988 201.225 73.174 217.049C78.1942 218.906 83.3869 220.418 88.711 221.543C96.2289 223.137 104.018 224 111.996 224C154.54 224 191.611 200.156 210.566 165.13C219.128 149.314 224 131.214 224 111.996C224 81.5218 211.75 53.8658 191.94 33.6538V33.662ZM33.4073 171.917C20.1709 154.466 13.1789 133.638 13.1789 111.692C13.1789 74.2257 33.9496 41.5168 64.588 24.4845C65.4015 24.0326 66.1984 25.1089 65.5247 25.7416C62.723 28.379 60.0362 31.1972 57.4728 34.1961C39.7174 54.9586 29.4882 83.1979 29.3978 111.692C29.3978 148.69 54.1452 188.613 94.1255 188.613C129.801 188.613 158.829 154.104 158.829 111.692C158.829 91.7675 152.149 72.6236 140.736 58.4259C140.334 57.9247 140.81 57.2181 141.427 57.3988C160.71 63.1009 175.138 85.2848 175.138 111.692C175.138 135.01 166.675 158.229 151.927 175.393C136.636 193.181 116.104 202.983 94.1255 202.991C70.9803 202.991 48.8293 191.644 33.4073 171.917ZM192.367 51.5242C205.587 68.9345 212.571 89.7298 212.547 111.667C212.547 149.133 191.776 181.842 161.137 198.875C160.324 199.327 159.527 198.25 160.201 197.618C163.002 194.98 165.689 192.162 168.253 189.163C186.008 168.401 196.237 140.161 196.328 111.667C196.328 74.6694 171.58 34.7466 131.6 34.7466C95.9249 34.7466 66.8968 69.2549 66.8968 111.667C66.8968 131.6 73.5766 150.736 84.989 164.941C85.3916 165.443 84.9151 166.149 84.2989 165.969C65.0153 160.266 50.5875 138.091 50.5875 111.692C50.5875 88.3741 59.0503 65.1632 73.8067 48.0076C89.1054 30.2194 109.638 20.4174 131.625 20.4174C154.753 20.4174 176.896 31.7559 192.376 51.5242H192.367ZM147.12 111.692C147.12 138.107 134.287 160.916 115.89 171.153C113.614 172.418 110.805 172.262 108.693 170.726L104.757 167.858C88.6206 156.084 78.605 134.558 78.605 111.675C78.605 85.2602 91.4388 62.46 109.835 52.2226C112.119 50.9573 114.921 51.1134 117.032 52.6498L120.968 55.5173C137.105 67.2912 147.129 88.8178 147.129 111.7L147.12 111.692Z" fill="white"/>
<path d="M316.919 78.0793C311.915 74.8832 306.073 73.281 299.385 73.281C292.697 73.281 286.831 74.8832 281.803 78.0793C276.766 81.2754 272.872 85.8519 270.119 91.8087C267.367 97.7655 265.986 104.856 265.986 113.089C265.986 121.321 267.367 128.305 270.119 134.254C272.88 140.211 276.774 144.804 281.803 148.033C286.839 151.27 292.697 152.88 299.385 152.88C306.073 152.88 311.915 151.262 316.919 148.033C321.914 144.795 325.809 140.202 328.602 134.254C331.396 128.297 332.793 121.248 332.793 113.089C332.793 104.93 331.396 97.6751 328.602 91.7594C325.809 85.8437 321.914 81.2836 316.919 78.0875V78.0793ZM314.002 127.418C312.573 131.386 310.584 134.418 308.045 136.513C305.507 138.609 302.623 139.652 299.394 139.652C296.165 139.652 293.256 138.609 290.684 136.513C288.113 134.418 286.108 131.386 284.678 127.418C283.24 123.45 282.526 118.668 282.526 113.089C282.526 107.51 283.24 102.728 284.678 98.7596C286.108 94.7912 288.113 91.7594 290.684 89.6642C293.256 87.5691 296.156 86.5256 299.394 86.5256C302.631 86.5256 305.515 87.5773 308.045 89.6642C310.584 91.7594 312.564 94.7747 314.002 98.7021C315.44 102.638 316.155 107.428 316.155 113.089C316.155 118.75 315.44 123.45 314.002 127.418Z" fill="white"/>
<path d="M361.376 77.2492L342.479 147.046C341.863 149.322 343.58 151.557 345.93 151.557H354.368C355.995 151.557 357.416 150.464 357.827 148.887L360.719 137.91C361.13 136.341 362.551 135.24 364.178 135.24H383.437C385.072 135.24 386.493 136.341 386.904 137.926L389.731 148.879C390.141 150.456 391.563 151.565 393.198 151.565H402.063C404.421 151.565 406.138 149.322 405.514 147.046L386.518 77.2492C386.091 75.6881 384.678 74.6118 383.067 74.6118H364.835C363.217 74.6118 361.803 75.6964 361.384 77.2575L361.376 77.2492ZM369.551 122.011C367.202 122.011 365.493 119.793 366.092 117.525L369.264 105.48L370.414 100.682C371.293 97.0258 376.494 97.0258 377.373 100.682L378.524 105.48L381.638 117.542C382.221 119.809 380.512 122.02 378.17 122.02H369.551V122.011Z" fill="white"/>
<path d="M491.868 78.1865V84.2584C491.868 86.2385 493.47 87.8406 495.45 87.8406H501.193C503.173 87.8406 504.775 89.4428 504.775 91.4229V134.764C504.775 136.744 503.173 138.346 501.193 138.346H495.45C493.47 138.346 491.868 139.948 491.868 141.928V148C491.868 149.98 493.47 151.582 495.45 151.582H530.081C532.062 151.582 533.664 149.98 533.664 148V141.928C533.664 139.948 532.062 138.346 530.081 138.346H524.338C522.358 138.346 520.756 136.744 520.756 134.764V91.4229C520.756 89.4428 522.358 87.8406 524.338 87.8406H530.081C532.062 87.8406 533.664 86.2385 533.664 84.2584V78.1865C533.664 76.2064 532.062 74.6042 530.081 74.6042H495.45C493.47 74.6042 491.868 76.2064 491.868 78.1865Z" fill="white"/>
<path d="M606.123 119.095C604.62 116.268 602.631 113.984 600.166 112.259C597.701 110.534 595.023 109.17 592.114 108.184C589.206 107.19 586.289 106.343 583.348 105.645C580.406 104.946 577.711 104.207 575.246 103.443C572.782 102.671 570.818 101.66 569.347 100.411C567.876 99.1622 567.145 97.5108 567.145 95.4485C567.145 92.581 568.23 90.3791 570.399 88.8344C572.568 87.2897 575.304 86.5174 578.615 86.5174C580.891 86.5174 583.044 86.8954 584.95 87.8977C587.48 89.2288 589.206 91.2664 590.167 92.7207C590.824 93.7149 591.942 94.2982 593.133 94.2982H602.787C605.293 94.2982 607.068 91.7758 606.148 89.4506C605.49 87.7991 604.661 86.2709 603.634 84.8577C600.914 81.1111 597.365 78.2436 592.994 76.2553C588.622 74.267 583.824 73.281 578.607 73.281C572.946 73.281 568.024 74.2752 563.834 76.2553C559.644 78.2354 556.39 80.9386 554.081 84.3565C551.764 87.7745 550.606 91.6197 550.606 95.8757C550.606 100.132 551.337 103.394 552.808 106.072C554.279 108.759 556.242 110.903 558.707 112.522C561.172 114.14 563.867 115.463 566.808 116.49C569.75 117.517 572.667 118.405 575.575 119.136C578.484 119.867 581.162 120.664 583.627 121.502C586.092 122.349 588.056 123.433 589.526 124.756C590.997 126.079 591.728 127.845 591.728 130.047C591.728 133.063 590.611 135.412 588.368 137.105C586.125 138.797 583.134 139.644 579.379 139.644C574.745 139.644 571.22 138.28 568.797 135.568C567.786 134.435 567.014 133.063 566.439 131.493C565.88 129.949 564.442 128.905 562.799 128.905H554.114C551.731 128.905 550.031 131.189 550.663 133.482C551.239 135.569 552.027 137.516 553.03 139.315C555.453 143.653 558.912 146.997 563.39 149.347C567.876 151.697 573.209 152.872 579.379 152.872C584.966 152.872 589.945 151.894 594.316 149.955C598.687 148.008 602.122 145.321 604.628 141.911C607.126 138.493 608.374 134.509 608.374 129.949C608.374 125.389 607.618 121.921 606.115 119.087L606.123 119.095Z" fill="white"/>
<path d="M474.225 119.095C472.722 116.268 470.733 113.984 468.268 112.259C465.804 110.534 463.125 109.17 460.216 108.184C457.308 107.19 454.391 106.343 451.45 105.645C448.508 104.946 445.813 104.207 443.348 103.443C440.884 102.671 438.92 101.66 437.449 100.411C435.978 99.1622 435.247 97.5108 435.247 95.4485C435.247 92.581 436.332 90.3791 438.501 88.8344C440.67 87.2897 443.406 86.5174 446.717 86.5174C448.993 86.5174 451.146 86.8954 453.052 87.8977C455.582 89.2288 457.308 91.2664 458.269 92.7207C458.927 93.7149 460.044 94.2982 461.235 94.2982H470.889C473.395 94.2982 475.17 91.7758 474.25 89.4506C473.593 87.7991 472.763 86.2709 471.736 84.8577C469.016 81.1111 465.467 78.2436 461.096 76.2553C456.725 74.267 451.926 73.281 446.709 73.281C441.048 73.281 436.126 74.2752 431.936 76.2553C427.746 78.2354 424.492 80.9386 422.183 84.3565C419.866 87.7745 418.708 91.6197 418.708 95.8757C418.708 100.132 419.439 103.394 420.91 106.072C422.381 108.759 424.344 110.903 426.809 112.522C429.274 114.14 431.969 115.463 434.91 116.49C437.852 117.517 440.769 118.405 443.677 119.136C446.586 119.867 449.264 120.664 451.729 121.502C454.194 122.349 456.158 123.433 457.628 124.756C459.099 126.079 459.83 127.845 459.83 130.047C459.83 133.063 458.713 135.412 456.47 137.105C454.227 138.797 451.236 139.644 447.481 139.644C442.847 139.644 439.323 138.28 436.899 135.568C435.888 134.435 435.116 133.063 434.541 131.493C433.966 129.924 432.544 128.905 430.901 128.905H422.216C419.834 128.905 418.133 131.189 418.765 133.482C419.341 135.569 420.129 137.516 421.132 139.315C423.555 143.653 427.015 146.997 431.492 149.347C435.978 151.697 441.311 152.872 447.481 152.872C453.068 152.872 458.047 151.894 462.418 149.955C466.789 148.008 470.224 145.321 472.73 141.911C475.228 138.493 476.476 134.509 476.476 129.949C476.476 125.389 475.721 121.921 474.217 119.087L474.225 119.095Z" fill="white"/>
<script xmlns=""/></svg>