<svg xmlns="http://www.w3.org/2000/svg" width="700" height="350" viewBox="0 0 700 350" fill="none">
<g clip-path="url(#clip0_6042_1868)">
<g clip-path="url(#clip1_6042_1868)">
<mask id="mask0_6042_1868" style="mask-type:luminance" maskUnits="userSpaceOnUse" x="3" y="82" width="695" height="186">
<path d="M3 82H697.998V267.998H3V82Z" fill="white"/>
</mask>
<g mask="url(#mask0_6042_1868)">
<path fill-rule="evenodd" clip-rule="evenodd" d="M199.566 149.694C208.754 151.309 216.974 153.891 223.267 157.298C228.948 160.391 233.185 164.189 234.814 168.845H289.977C293.832 159.163 299.544 149.831 305.894 140.846C299.411 138.981 294.154 136.166 290.344 133.254C286.103 129.907 283.466 126.697 283.317 123.572C283.313 123.495 283.317 123.447 283.313 123.435C283.313 121.365 284.245 119.713 285.482 118.682C286.7 117.643 288.074 117.067 289.24 116.504C291.747 115.174 292.989 114.723 293.098 111.807C293.098 111.787 293.098 111.775 293.098 111.759C293.102 110.648 292.932 109.975 292.691 109.604C292.437 109.21 292.054 108.839 290.876 108.424C288.599 107.623 283.761 107.24 275.428 107.248C275.327 107.248 275.226 107.248 275.121 107.248H160.081C160.024 107.941 159.976 108.855 159.976 109.947C160.141 119.709 163.391 142.533 199.566 149.694ZM323.157 242.528C323.157 242.484 323.157 242.444 323.157 242.42C323.161 236.209 324.237 228.919 325.919 220.997H289.74C296.23 239.931 310.925 256.516 331.97 262.863C327.023 259.049 323.137 252.581 323.157 242.528ZM351.753 182.764C352.958 182.764 353.636 183.65 353.636 184.564C353.636 185.479 353.458 186.3 351.656 186.3H336.582V192.599H348.165C350.241 192.599 350.918 192.873 350.918 194.387C350.918 195.845 350.934 196.18 348.165 196.18H336.582V204.271H353.732C354.603 204.271 355.486 204.251 355.486 205.761C355.486 206.869 354.954 207.799 352.72 207.799H334.349C332.272 207.799 330.325 207.275 330.325 203.784V185.334C330.325 184.323 330.003 182.764 332.462 182.764H351.753ZM357.244 185.817C357.244 183.936 357.74 182.764 359.913 182.764H371.048C372.414 182.764 381.421 184.166 381.421 190.412C381.421 196.667 373.487 196.18 371.592 196.18V197.054L383.223 206.148C381.135 207.018 380.07 207.227 378.417 207.799C376.003 206.534 365.142 196.373 364.613 196.18H363.501V207.799H357.244V185.817ZM389.544 182.764H409.073C410.875 182.764 411.887 182.776 411.887 184.564C411.887 186.353 410.859 186.353 409.073 186.353H395.366V193.465H405.776C407.578 193.465 408.444 194.609 408.444 195.35C408.444 196.083 408.432 197.146 405.727 197.146H395.366V205.427C395.366 207.062 395.173 207.799 392.504 207.799C389.835 207.799 389.544 206.482 389.544 205.427V182.764ZM413.847 182.764H418.302C419.027 182.764 420.152 182.909 420.152 185.769V198.931C420.152 200.634 421.297 203.884 426.832 203.884C432.364 203.884 436.238 202.757 436.238 198.689V185.817C436.238 184.657 436.177 182.764 437.931 182.764H442.483V198.882C442.483 202.902 440.697 207.799 428.134 207.799C416.02 207.799 413.847 202.072 413.847 198.882V182.764ZM447.127 182.764H466.414C467.623 182.764 468.301 183.65 468.301 184.564C468.301 185.479 468.119 186.3 466.321 186.3H451.247V192.599H462.83C464.906 192.599 465.579 192.873 465.579 194.387C465.579 195.845 465.596 196.18 462.83 196.18H451.247V204.271H468.398C469.264 204.271 470.147 204.251 470.147 205.761C470.147 206.869 469.619 207.799 467.382 207.799H449.014C446.934 207.799 444.99 207.275 444.99 203.784V185.334C444.99 184.323 444.664 182.764 447.127 182.764ZM471.151 185.672C471.151 184.464 471.151 182.764 474.114 182.764C477.17 182.764 477.408 183.453 477.408 185.237V203.349H493.498C493.498 204.122 494.078 207.799 490.055 207.799H474.497C472.264 207.799 471.151 206.257 471.151 204.17V185.672ZM489.769 182.49C492.244 182.49 494.28 184.544 494.28 187.013C494.28 189.498 492.244 191.524 489.716 191.524C487.201 191.524 485.149 189.498 485.149 187.013C485.149 184.488 487.189 182.49 489.769 182.49ZM327.656 203.349C327.656 206.148 321.282 207.799 312.74 207.799C304.201 207.799 290.88 204.106 290.88 195.205C290.88 189.788 296.109 182.764 312.498 182.764C318.355 182.764 326.785 184.113 326.785 186.3C326.785 188.483 325.278 188.097 323.681 188.097C322.089 188.097 320.738 186.252 312.691 186.252C304.648 186.252 297.089 188.084 297.089 194.818C297.089 201.552 304.6 204.271 312.788 204.271C317.344 204.271 321.157 203.59 323.197 201.552V197.054H312.352C310.845 197.054 310.603 196.389 310.603 195.604C310.603 194.818 310.941 193.421 314.046 193.421H325.628C326.737 193.421 327.656 193.912 327.656 196.232V203.349ZM287.873 207.799C285.458 206.534 274.601 196.373 274.069 196.18H272.956V207.799H266.699V185.817C266.699 183.936 267.195 182.764 269.368 182.764H280.503C281.87 182.764 290.88 184.166 290.88 190.412C290.88 196.667 282.946 196.18 281.048 196.18V197.054L292.679 206.148C290.59 207.018 289.526 207.227 287.873 207.799ZM263.934 198.882C263.934 202.902 262.148 207.799 249.585 207.799C237.471 207.799 235.298 202.072 235.298 198.882V182.764H239.752C240.478 182.764 241.603 182.909 241.603 185.769V198.931C241.603 200.634 242.748 203.884 248.279 203.884C253.814 203.884 257.689 202.757 257.689 198.689V185.817C257.689 184.657 257.628 182.764 259.382 182.764H263.934V198.882ZM222.945 207.799H207.484V185.334C207.484 184.178 208.943 182.764 210.588 182.764H220.224C222.364 182.764 231.661 183.936 231.661 189.498C231.661 193.514 227.363 194.432 226.335 194.432V195.302C229.379 195.302 233.499 197.054 233.499 200.586C233.499 204.122 227.98 207.799 222.945 207.799ZM292.453 172.522H231.786L221.489 172.518V172.522C221.489 172.522 221.489 172.522 221.477 172.522C215.829 172.518 208.391 173.988 202.477 177.456C196.526 180.972 192.148 186.2 191.769 194.271C191.757 194.617 191.745 194.955 191.745 195.294C191.745 195.314 191.745 195.342 191.745 195.386C191.777 203.127 195.256 208.391 200.437 212.008C205.609 215.592 212.535 217.32 218.917 217.312L218.937 217.316H326.737L326.741 217.3H375.148L375.152 217.316H477.44C477.477 217.312 477.501 217.316 477.521 217.312C483.169 217.32 490.615 215.858 496.53 212.39C502.484 208.87 506.863 203.639 507.242 195.568C507.258 195.197 507.266 194.826 507.266 194.456C507.233 186.711 503.75 181.459 498.574 177.83C493.409 174.25 486.495 172.526 480.129 172.522C480.101 172.522 480.097 172.522 480.097 172.522L480.093 172.039L480.073 172.526L469.543 172.522V172.526H408.259L362.977 172.522L362.981 172.538H339.537L339.541 172.522H292.453ZM374.999 242.407V242.399C374.999 236.435 373.906 229.084 372.165 221.017H329.704C327.959 229.08 326.866 236.435 326.87 242.399H326.302L326.87 242.42C326.931 253.028 331.18 258.211 336.199 261.236C341.198 264.204 347.173 264.7 350.148 264.7C350.205 264.7 350.205 264.7 350.205 264.7H351.612C351.668 264.696 351.696 264.696 351.708 264.696C351.716 264.7 351.716 264.7 351.721 264.7C354.692 264.708 360.667 264.204 365.666 261.236C370.681 258.219 374.926 253.04 374.999 242.46C374.999 242.436 374.999 242.42 374.999 242.407ZM452.848 220.997H415.879C414.528 225.826 412.734 230.361 410.529 234.566C413.831 239.29 418.85 246.971 424.018 253.821C426.973 257.74 429.981 261.381 432.662 263.979C435.21 266.536 437.721 267.934 438.633 267.869H438.685C438.754 267.869 438.79 267.869 438.802 267.869C442.18 267.938 457.089 262.69 459.955 260.64L460.403 261.288L459.964 260.632C465.249 257.124 470.059 253.419 474.598 249.58L452.848 220.997ZM374.317 190.231C374.317 186.602 369.762 186.357 368.556 186.357H362.698V194.396H368.266C370.645 194.396 374.317 193.864 374.317 190.231ZM375.95 220.997C377.627 228.919 378.708 236.209 378.712 242.42V242.46L378.708 242.492C378.712 242.492 378.708 242.492 378.708 242.524C378.728 252.851 374.636 259.391 369.504 263.161C389.863 257.543 405.655 242.577 412.057 220.997H375.95ZM248.481 220.997L226.634 249.701C231.133 253.503 235.894 257.156 241.131 260.64C243.994 262.69 258.906 267.938 262.281 267.869C262.309 267.869 262.341 267.869 262.337 267.869C262.406 267.869 262.442 267.869 262.45 267.869C263.361 267.934 265.869 266.536 268.429 263.971C271.106 261.381 274.109 257.74 277.064 253.821C282.616 246.463 287.986 238.166 291.255 233.571C289.058 229.54 287.264 225.319 285.869 220.997H248.481ZM200.618 174.282C207.319 170.384 215.273 168.853 221.526 168.845H230.822C229.347 165.929 226.15 163.033 221.51 160.536C219.542 159.465 217.317 158.474 214.898 157.56L148.518 185.805C157.968 190.739 166.092 195.934 173.321 201.266L188.169 193.054C188.911 184.166 194.192 177.991 200.618 174.282ZM198.344 215.037C192.785 211.231 188.677 205.254 188.132 197.275L176.534 203.695C185.242 210.409 192.668 217.308 199.683 224.147L205.67 218.718C203.081 217.799 200.594 216.591 198.344 215.037ZM477.485 220.997C474.828 220.997 467.434 220.997 457.476 220.997L477.396 247.168C484.879 240.595 491.72 233.656 498.888 226.608L490.47 218.983C485.959 220.381 481.395 220.993 477.485 220.997ZM156.291 110.261C156.291 110.152 156.291 110.047 156.291 109.955C156.291 108.896 156.332 107.977 156.388 107.236H3.00781C4.29791 112.762 7.24497 119.601 13.8124 126.939L156.795 116.504C156.416 114.139 156.291 112.017 156.291 110.261ZM198.897 153.319C193.966 152.364 189.604 151.104 185.726 149.622L111.811 170.665C124.148 174.653 134.827 179.01 144.225 183.63L209.633 155.8C206.295 154.821 202.694 153.979 198.897 153.319ZM157.545 120.14L17.1424 130.378C23.8106 136.802 33.4097 143.484 47.1936 149.843L162.633 131.909C160.049 127.897 158.476 123.838 157.545 120.14ZM165.06 135.256L53.4626 152.59C63.7229 156.859 76.0151 160.939 90.7423 164.648C95.8664 165.933 100.733 167.282 105.385 168.668L180.432 147.294C173.595 143.895 168.624 139.69 165.06 135.256ZM218.937 220.997C215.934 220.997 212.842 220.639 209.81 219.934L202.319 226.724C209.484 233.777 216.337 240.72 223.84 247.297L243.856 220.997C231.73 220.997 222.388 220.997 218.937 220.997ZM225.404 189.881C225.404 187.577 223.279 185.43 219.74 185.43C217.119 185.43 215.676 185.479 214.704 185.479C213.193 185.479 212.955 185.817 212.955 187.214V193.514H219.454C223.715 193.514 225.404 191.874 225.404 189.881ZM218.438 196.18H212.955V204.271H218.438C223.582 204.271 227.158 203.784 227.158 200.151C227.158 196.518 220.175 196.18 218.438 196.18ZM293.981 168.845H340.581C344.307 155.953 347.5 143.891 348.685 134.579L348.777 133.834V133.814C348.782 132.452 349.922 131.417 351.265 131.417C352.607 131.417 353.744 132.452 353.752 133.814C353.748 133.874 353.748 133.914 353.744 133.947L353.825 134.579C355.006 143.891 358.199 155.953 361.932 168.845H406.582C399.196 151.555 385.428 134.809 373.176 118.94C363.319 106.104 354.369 93.8609 350.717 81.9072C346.903 93.4058 337.832 105.384 327.874 118.115C322.661 124.752 317.182 131.583 312.03 138.574L312.054 138.582L310.442 140.818C303.87 149.908 297.976 159.28 293.981 168.845ZM498.388 215.568C497.094 216.321 495.752 216.982 494.385 217.566L501.517 224.03C508.524 217.211 515.938 210.328 524.626 203.631L510.902 196.16C510.366 205.391 504.98 211.758 498.388 215.568ZM544.94 107.236C544.993 107.977 545.033 108.9 545.033 109.971V110.277C545.033 112.033 544.908 114.147 544.533 116.504L687.286 126.915C693.842 119.597 696.789 112.754 698.079 107.236H544.94ZM354.571 168.829H358.066C355.272 159.151 352.797 149.94 351.253 141.893C349.709 149.94 347.233 159.151 344.452 168.829H354.571ZM411.053 168.845H466.515C468.144 164.189 472.381 160.391 478.061 157.298C484.354 153.891 492.575 151.309 501.73 149.698C537.934 142.537 541.187 119.709 541.352 109.955C541.352 108.863 541.304 107.953 541.248 107.248L426.199 107.244H426.107C419.757 107.244 415.439 107.438 412.686 107.897C409.868 108.36 408.944 109.069 408.634 109.604C408.4 109.971 408.231 110.627 408.231 111.715V111.767C408.327 114.095 408.985 114.635 410.456 115.646C411.859 116.544 414.028 117.156 415.838 118.674C417.084 119.722 418.019 121.373 418.011 123.443V123.536C417.858 126.733 415.169 129.992 410.835 133.383L410.351 132.755L410.827 133.387C406.933 136.331 401.55 139.174 394.91 141.007C398.245 145.457 405.759 155.208 411.053 168.845ZM284.575 190.171C284.575 186.542 280.019 186.3 278.814 186.3H272.956V194.339H278.524C280.902 194.339 284.575 193.803 284.575 190.171ZM479.819 160.536C475.183 163.033 471.986 165.929 470.506 168.845H480.073C487.096 168.853 494.679 170.682 500.666 174.802C506.076 178.515 510.112 184.266 510.826 191.931L527.859 201.198C535.095 195.862 543.219 190.67 552.677 185.752L486.435 157.56C484.016 158.474 481.79 159.465 479.819 160.536ZM487.624 184.677H490.071C490.821 184.677 491.269 184.754 491.559 184.951C491.926 185.197 492.139 185.595 492.139 186.026C492.139 186.421 491.966 186.792 491.676 187.013C491.575 187.094 491.478 187.134 491.216 187.255C491.768 187.504 491.966 187.859 492.018 188.644C492.059 189.208 492.071 189.248 492.216 189.438H491.188C491.139 189.341 491.123 189.329 491.099 189.196L491.047 188.697C490.954 187.77 490.543 187.476 489.362 187.476H488.6V189.438H487.624V184.677ZM489.728 190.726C491.781 190.726 493.454 189.067 493.454 187.001C493.454 184.979 491.781 183.292 489.769 183.292C487.648 183.292 485.991 184.927 485.991 187.013C485.991 189.055 487.664 190.726 489.728 190.726ZM502.4 153.319C498.626 153.979 495.03 154.821 491.696 155.8L556.971 183.574C566.3 179.002 576.882 174.681 589.09 170.726L515.599 149.614C511.717 151.104 507.354 152.373 502.4 153.319ZM520.88 147.306L595.48 168.732C600.201 167.323 605.14 165.953 610.344 164.648C625.104 160.935 637.416 156.843 647.689 152.566L536.269 135.256C532.697 139.69 527.726 143.895 520.88 147.306ZM491.111 186.067C491.111 185.805 490.99 185.595 490.809 185.495C490.676 185.434 490.466 185.41 490.003 185.41H488.6V186.739H490.003C490.833 186.739 491.111 186.566 491.111 186.067ZM538.692 131.909L653.962 149.811C667.721 143.456 677.304 136.782 683.96 130.362L543.779 120.136C542.848 123.838 541.276 127.897 538.692 131.909Z" fill="white"/>
</g>
</g>
</g>
<defs>
<clipPath id="clip0_6042_1868">
<rect width="700" height="350" fill="white"/>
</clipPath>
<clipPath id="clip1_6042_1868">
<rect width="695" height="186" fill="white" transform="translate(3 82)"/>
</clipPath>
</defs>
<script xmlns=""/></svg>