<svg xmlns="http://www.w3.org/2000/svg" width="700" height="350" viewBox="0 0 700 350" fill="none">
<path d="M617.819 234.993C594.715 234.993 571.619 235.001 548.515 234.993C539.847 234.993 535.95 231.09 535.942 222.395C535.927 190.436 535.927 158.478 535.942 126.519C535.942 118.118 539.996 114.011 548.313 114.011C594.643 113.996 640.969 113.996 687.295 114.011C695.821 114.011 699.967 118.118 699.974 126.7C700.012 158.53 700.005 190.369 699.974 222.199C699.967 231.06 695.974 234.993 687.115 234.993C664.012 235.008 640.915 234.993 617.811 234.993H617.819ZM647.187 216.581C634.816 188.029 622.81 160.253 610.672 132.536C610.237 131.551 608.466 130.619 607.284 130.581C601.672 130.378 596.041 130.648 590.429 130.416C587.838 130.31 586.729 131.288 585.754 133.552C574.332 160.088 562.814 186.578 551.334 213.091C550.915 214.061 550.66 215.107 550.226 216.438C555.853 216.438 561.069 216.265 566.27 216.506C569.139 216.641 570.377 215.52 571.409 212.933C579.765 191.896 588.265 170.918 596.731 149.926C597.226 148.693 597.775 147.474 598.529 145.706C599.386 147.685 599.992 149.023 600.544 150.392C609.06 171.362 617.541 192.347 626.136 213.287C626.662 214.573 628.018 216.385 629.059 216.438C634.869 216.746 640.706 216.588 647.187 216.588V216.581ZM659.988 130.656V216.257H678.135V130.656H659.988Z" fill="white"/>
<path d="M1.43045 215.325V200.628C2.9514 200.628 4.39767 200.628 5.84395 200.628C25.9425 200.628 46.0483 200.635 66.1468 200.613C68.0126 200.613 69.9012 200.568 71.7445 200.297C77.4249 199.44 81.007 195.423 81.1945 189.895C81.3892 184.066 78.4215 180.237 72.524 178.981C70.7105 178.598 68.8146 178.515 66.9485 178.508C53.842 178.47 40.7276 178.59 27.6212 178.417C24.0466 178.372 20.3669 177.913 16.9349 176.935C5.98646 173.791 -0.420839 164.616 0.0215028 153.288C0.463464 141.901 7.50779 133.552 18.8685 131.213C21.6559 130.634 24.5637 130.363 27.4113 130.348C47.7643 130.273 68.1177 130.295 88.4632 130.303C89.325 130.303 90.1792 130.408 91.2883 130.483V145.255C89.7746 145.255 88.3436 145.255 86.9045 145.255C67.0536 145.255 47.2023 145.202 27.3438 145.285C18.8384 145.323 14.1997 151.566 16.7402 159.253C18.1415 163.51 21.4387 165.781 26.9693 165.834C38.3296 165.939 49.6903 165.811 61.051 165.924C66.2817 165.977 71.6024 165.871 76.728 166.729C89.2275 168.82 95.575 176.74 95.8973 189.745C96.212 202.493 89.325 211.843 77.41 214.482C74.2702 215.182 70.9802 215.453 67.7653 215.468C46.5428 215.558 25.3131 215.521 4.09059 215.513C3.34878 215.513 2.61421 215.408 1.43045 215.317V215.325Z" fill="white"/>
<path d="M522.599 215.49C514.888 215.49 508.213 215.58 501.541 215.4C500.539 215.369 499.438 214.226 498.612 213.369C492.447 206.983 486.412 200.455 480.125 194.182C478.899 192.956 476.761 192.068 475.024 192.038C465.072 191.835 455.105 191.94 444.936 191.94V178.68C446.201 178.68 447.504 178.68 448.811 178.68C459.548 178.68 470.288 178.74 481.025 178.665C494.543 178.567 501.122 170.391 498.547 157.041C497.286 150.535 492.489 145.676 485.551 145.541C468.345 145.202 451.124 145.428 433.514 145.428V215.197H418.106V130.498C419.192 130.43 420.385 130.302 421.577 130.302C441.309 130.287 461.041 130.174 480.762 130.385C485.448 130.438 490.317 130.934 494.752 132.333C508.506 136.658 516 149.925 514.126 165.299C512.739 176.687 507.253 184.953 495.99 189.691C504.795 198.228 513.314 206.494 522.592 215.49H522.599Z" fill="white"/>
<path d="M233.873 145.549V215.287H218.69V130.446C219.666 130.393 220.626 130.303 221.586 130.303C241.188 130.303 260.783 130.242 280.39 130.355C284.104 130.378 287.911 130.656 291.511 131.529C307.555 135.44 316.215 149.527 313.293 166.526C310.873 180.576 301.737 190.166 287.537 191.151C273.665 192.114 259.675 191.362 245.505 191.362V177.485C251.521 177.485 257.354 177.522 263.184 177.477C270.167 177.417 277.189 177.688 284.127 177.079C293.389 176.266 298.807 169.67 298.495 160.599C298.186 151.588 292.22 145.503 282.839 145.361C267.237 145.135 251.628 145.27 236.026 145.27C235.432 145.27 234.841 145.421 233.873 145.549Z" fill="white"/>
<path d="M108.263 130.513H124C124 131.897 124 133.228 124 134.559C124 148.842 123.955 163.125 124.037 177.416C124.052 180.282 124.284 183.193 124.839 185.998C126.068 192.203 129.567 196.919 135.615 198.905C149.531 203.463 163.642 203.598 177.498 198.837C186.535 195.731 188.911 187.841 189.016 179.214C189.196 164.427 189.083 149.639 189.098 134.86C189.098 133.506 189.098 132.145 189.098 130.55H203.733C203.891 130.813 204.116 131.017 204.116 131.227C204.123 148.391 204.483 165.562 204.011 182.719C203.546 199.454 195.063 209.939 178.974 214.075C163.484 218.062 147.792 218.039 132.325 213.835C117.263 209.743 108.787 199.281 108.315 183.636C107.798 166.487 108.075 149.309 108.015 132.145C108.015 131.671 108.157 131.197 108.27 130.52L108.263 130.513Z" fill="white"/>
<path d="M340.5 200.56H404.108V215.25H325.035V130.596H404.009V145.218H340.5V200.56Z" fill="white"/>
<path d="M400.805 178.297H351.884V166.104H400.805V178.297Z" fill="white"/>
<script xmlns=""/></svg>